<svg xmlns="http://www.w3.org/2000/svg" xmlns:xlink="http://www.w3.org/1999/xlink" version="1.1" x="0px" y="0px" enable-background="new 0 0 100 100" xml:space="preserve" viewBox="37.29 38.54 25.43 22.92"><path fill="#000000" d="M43.753,61.459c-0.203,0-0.408-0.043-0.602-0.131c-0.521-0.236-0.855-0.756-0.855-1.328v-4.663h-3.552  c-0.806,0-1.458-0.653-1.458-1.459V40c0-0.806,0.652-1.459,1.458-1.459h22.511c0.806,0,1.459,0.653,1.459,1.459v13.878  c0,0.806-0.653,1.459-1.459,1.459h-9.954l-6.587,5.761C44.442,61.335,44.101,61.459,43.753,61.459z M40.202,52.42h3.552  c0.806,0,1.458,0.652,1.458,1.458v2.908l4.581-4.006c0.266-0.232,0.606-0.36,0.96-0.36h9.043V41.458H40.202V52.42z"></path></svg>